<svg width="189" height="132" viewBox="0 0 189 132" fill="none" xmlns="http://www.w3.org/2000/svg">
<path d="M160.024 19.7918C160.024 22.7581 162.43 26.5217 165.393 28.205C168.359 29.885 170.761 28.8449 170.761 25.8786C170.761 22.9123 168.356 19.1454 165.393 17.4654C162.426 15.7854 160.024 16.8256 160.024 19.7918Z" fill="#5C707A" stroke="#091A23" stroke-width="0.7" stroke-linecap="round" stroke-linejoin="round"/>
<path d="M173.388 13.5099L157.398 4.45032L149.402 13.7658L157.398 32.1442L173.388 41.2038L181.384 31.8883L173.388 13.5099ZM165.391 27.8261C162.632 26.2609 160.394 22.7565 160.394 19.997C160.394 17.2374 162.632 16.2662 165.391 17.8313C168.151 19.3965 170.389 22.9009 170.389 25.6604C170.389 28.42 168.151 29.3913 165.391 27.8261Z" fill="#E8EBEC" stroke="#091A23" stroke-width="0.7" stroke-linecap="round" stroke-linejoin="round"/>
<path d="M157.399 4.45488L164.333 0.350006L180.326 9.40959L173.389 13.5145L157.399 4.45488Z" fill="#B9C2C6" stroke="#091A23" stroke-width="0.7" stroke-linecap="round" stroke-linejoin="round"/>
<path d="M181.381 31.8905L188.318 27.7856L180.325 9.4072L173.388 13.5121L181.381 31.8905Z" fill="#B9C2C6" stroke="#091A23" stroke-width="0.7" stroke-linecap="round" stroke-linejoin="round"/>
<path d="M173.388 41.2161L180.325 37.1112L188.318 27.7924L181.381 31.8973L173.388 41.2161Z" fill="#B9C2C6" stroke="#091A23" stroke-width="0.7" stroke-linecap="round" stroke-linejoin="round"/>
<path d="M168.3 21.2591L150.492 31.641" stroke="#091A23" stroke-width="0.7" stroke-linecap="round" stroke-linejoin="round" stroke-dasharray="4 4"/>
<path d="M140.701 23.1454C132.973 18.6205 126.706 21.216 126.706 28.9434C126.706 36.6708 132.97 46.6064 140.701 51.1313C148.428 55.6562 154.695 53.0607 154.695 45.3333C154.695 37.6059 148.431 27.6702 140.701 23.1454ZM140.701 42.8822C137.528 41.025 134.955 36.9464 134.955 33.7734C134.955 30.6004 137.528 29.534 140.701 31.3945C143.874 33.2517 146.446 37.3303 146.446 40.5033C146.446 43.6763 143.874 44.7427 140.701 42.8822Z" fill="#E8EBEC" stroke="#091A23" stroke-width="0.7" stroke-linecap="round" stroke-linejoin="round"/>
<path d="M134.955 33.7829C134.955 36.9559 137.528 41.0312 140.701 42.8917C143.018 44.2469 145.006 44.0401 145.915 42.5964C145.006 42.6653 143.92 42.3798 142.752 41.6973C139.579 39.8401 137.006 35.7615 137.006 32.5885C137.006 31.7321 137.2 31.0332 137.535 30.5016C135.979 30.6197 134.952 31.7813 134.952 33.7829H134.955Z" fill="#5C707A" stroke="#091A23" stroke-width="0.7" stroke-linecap="round" stroke-linejoin="round"/>
<path d="M156.746 44.1426C156.746 36.4152 150.482 26.4795 142.752 21.9546C138.676 19.5692 135.011 19.1656 132.455 20.4453L132.445 20.4518C132.258 20.547 130.683 21.469 130.204 21.7479C132.77 20.3403 136.521 20.6979 140.704 23.149C148.432 27.6739 154.699 37.6096 154.699 45.337C154.699 48.7167 153.501 51.1153 151.503 52.3655L153.071 51.4434C153.291 51.3319 153.501 51.2072 153.701 51.0726L153.796 51.0169H153.787C155.641 49.7273 156.75 47.3911 156.75 44.1426H156.746Z" fill="#B9C2C6" stroke="#091A23" stroke-width="0.7" stroke-linecap="round" stroke-linejoin="round"/>
<path d="M151.454 52.393L151.493 52.3699C151.48 52.3765 151.467 52.3831 151.454 52.393Z" fill="#5C707A" stroke="#091A23" stroke-width="0.7" stroke-linecap="round" stroke-linejoin="round"/>
<path d="M144.382 35.1661L126.749 45.2921" stroke="#091A23" stroke-width="0.7" stroke-linecap="round" stroke-linejoin="round" stroke-dasharray="4 4"/>
<path d="M69.8744 17.0957L69.438 85.3133L124.868 117.893L125.61 50.5614L125.623 49.3539L69.8744 17.0957Z" fill="#DCFF1E" stroke="#091A23" stroke-width="0.7" stroke-linecap="round" stroke-linejoin="round"/>
<path d="M69.8735 17.0938L73.7979 14.7149L129.55 46.9764L128.792 115.516L124.868 117.894L125.626 49.3553L69.8735 17.0938Z" fill="#DCFF1E" stroke="#091A23" stroke-width="0.7" stroke-linecap="round" stroke-linejoin="round"/>
<path d="M125.668 49.2803L129.475 47.026" stroke="#091A23" stroke-width="0.7" stroke-linecap="round" stroke-linejoin="round"/>
<path d="M60.0399 23.0356L59.6035 91.2532L115.034 123.833L115.776 56.5013L115.789 55.2938L60.0366 23.0323L60.0399 23.0356Z" fill="#80DBFF" stroke="#091A23" stroke-width="0.7" stroke-linecap="round" stroke-linejoin="round"/>
<path d="M60.0405 23.0367L63.9649 20.6578L119.717 52.9193L118.959 121.458L115.035 123.837L115.793 55.2982L60.0405 23.0367Z" fill="#80DBFF" stroke="#091A23" stroke-width="0.7" stroke-linecap="round" stroke-linejoin="round"/>
<path d="M115.834 55.2231L119.641 52.9689" stroke="#091A23" stroke-width="0.7" stroke-linecap="round" stroke-linejoin="round"/>
<path d="M48.976 29.3836L48.5396 97.6012L103.97 130.181L104.712 62.8493L104.725 61.6418L48.9727 29.3803L48.976 29.3836ZM76.6338 84.673C73.9366 83.0915 71.748 79.6231 71.748 76.9259C71.748 74.2287 73.9366 73.3198 76.6338 74.9014C79.331 76.483 81.5196 79.9513 81.5196 82.6485C81.5196 85.3457 79.331 86.2546 76.6338 84.673Z" fill="#C795E3" stroke="#091A23" stroke-width="0.7" stroke-linecap="round" stroke-linejoin="round"/>
<path d="M71.7479 76.9255C71.7479 79.6227 73.9365 83.0943 76.6337 84.6725C79.2948 86.2311 81.4539 85.3682 81.513 82.7596C81.2045 82.6382 80.883 82.4872 80.5548 82.2936C77.8576 80.7121 75.669 77.2437 75.669 74.5465C75.669 74.5072 75.6756 74.4711 75.6756 74.435C73.4345 73.5687 71.7446 74.5531 71.7446 76.9255H71.7479Z" fill="#5C707A" stroke="#091A23" stroke-width="0.7" stroke-linecap="round" stroke-linejoin="round"/>
<path d="M48.9761 29.3815L52.9005 27.0058L108.653 59.2673L107.895 127.806L103.973 130.182L104.728 61.6429L48.9761 29.3815Z" fill="#C795E3" stroke="#091A23" stroke-width="0.7" stroke-linecap="round" stroke-linejoin="round"/>
<path d="M104.77 61.5712L108.576 59.3169" stroke="#091A23" stroke-width="0.7" stroke-linecap="round" stroke-linejoin="round"/>
<path d="M77.1098 64.6471C68.6802 59.7121 61.8486 62.5438 61.8486 70.9701C61.8486 79.3964 68.6802 90.2312 77.1098 95.1662C85.5394 100.101 92.371 97.2695 92.371 88.8432C92.371 80.4169 85.5394 69.5821 77.1098 64.6471Z" stroke="white" stroke-width="0.7" stroke-miterlimit="10"/>
<path d="M80 77.9579L42.6001 99.5486" stroke="#091A23" stroke-width="0.7" stroke-linecap="round" stroke-linejoin="round" stroke-dasharray="4 4"/>
<path d="M55.2886 87.745C53.7037 86.8164 52.3092 86.8033 51.4036 87.3939L21.5571 104.46C24.7432 107.531 27.2829 111.534 28.52 115.429L59.1933 97.8546C59.8102 97.3985 60.1744 96.5946 60.1744 95.4921C60.1744 92.7949 57.9858 89.3233 55.2886 87.745Z" fill="#E8EBEC" stroke="#091A23" stroke-width="0.7" stroke-linecap="round" stroke-linejoin="round"/>
<path d="M33.6496 113.425C33.4856 113.425 33.3248 113.352 33.2165 113.211C33.036 112.972 33.082 112.634 33.3215 112.453C33.8465 112.056 34.1221 111.348 34.1221 110.409C34.1221 107.738 31.9302 104.283 29.2396 102.708C27.8746 101.907 26.6277 101.74 25.8205 102.249C25.5679 102.409 25.2332 102.331 25.0724 102.078C24.9116 101.825 24.9904 101.491 25.243 101.33C26.4013 100.598 28.0583 100.759 29.7843 101.773C32.7735 103.522 35.2049 107.397 35.2049 110.409C35.2049 112.04 34.5356 112.893 33.9777 113.316C33.8793 113.392 33.7645 113.428 33.6496 113.428V113.425Z" fill="#8A99A0" stroke="#091A23" stroke-width="0.7" stroke-miterlimit="10"/>
<path d="M42.3772 108.436C42.2131 108.436 42.0523 108.364 41.944 108.223C41.7636 107.983 41.8095 107.645 42.049 107.465C42.574 107.068 42.8497 106.359 42.8497 105.421C42.8497 102.75 40.6578 99.2946 37.9671 97.7196C36.6021 96.919 35.3552 96.7517 34.548 97.2603C34.2954 97.4178 33.9607 97.3423 33.7999 97.0896C33.6391 96.837 33.7179 96.5023 33.9705 96.3415C35.1321 95.6098 36.7859 95.7706 38.5118 96.7845C41.5011 98.5334 43.9325 102.409 43.9325 105.421C43.9325 107.052 43.2631 107.901 42.702 108.328C42.6036 108.403 42.4887 108.44 42.3739 108.44L42.3772 108.436Z" fill="#8A99A0" stroke="#091A23" stroke-width="0.7" stroke-miterlimit="10"/>
<path d="M51.1027 103.442C50.9387 103.442 50.7779 103.369 50.6696 103.228C50.4892 102.989 50.5351 102.651 50.7746 102.47C51.2996 102.073 51.5752 101.365 51.5752 100.426C51.5752 97.7552 49.3834 94.3 46.6927 92.725C45.3277 91.9244 44.0808 91.757 43.2736 92.2656C43.021 92.4231 42.6863 92.3477 42.5255 92.095C42.3647 91.8423 42.4435 91.5077 42.6961 91.3469C43.8577 90.6152 45.5115 90.7759 47.2374 91.7898C50.2266 93.5388 52.6581 97.4139 52.6581 100.426C52.6581 102.057 51.9887 102.907 51.4276 103.333C51.3292 103.409 51.2143 103.445 51.0995 103.445L51.1027 103.442Z" fill="#8A99A0" stroke="#091A23" stroke-width="0.7" stroke-miterlimit="10"/>
<path d="M24.4576 124.056C24.4576 130.714 19.0599 132.948 12.4022 129.05C5.74779 125.152 0.350098 116.594 0.350098 109.937C0.350098 103.279 5.74779 101.044 12.4055 104.943C19.0632 108.841 24.4609 117.398 24.4609 124.056H24.4576Z" fill="#E8EBEC" stroke="#091A23" stroke-width="0.7" stroke-linecap="round" stroke-linejoin="round"/>
<path d="M18.4206 118.575L14.2731 116.2V112.052L10.5357 109.91V114.057L6.38818 111.681V115.422L10.5357 117.798V121.945L14.2731 124.088V119.94L18.4206 122.316V118.575Z" fill="#5C707A" stroke="#091A23" stroke-width="0.7" stroke-linecap="round" stroke-linejoin="round"/>
<path d="M17.9052 101.803C14.1252 99.5879 10.7521 99.355 8.54048 100.786C7.64141 101.297 4.28139 103.217 3.54639 103.64C5.74812 102.544 8.90142 102.895 12.4025 104.946C19.0602 108.844 24.4579 117.402 24.4579 124.06C24.4579 127.095 23.3357 129.205 21.4851 130.242V130.258L26.7811 127.21C28.7564 126.219 29.9606 124.063 29.9606 120.916C29.9606 114.259 24.5629 105.701 17.9052 101.803Z" fill="#B9C2C6" stroke="#091A23" stroke-width="0.7" stroke-linecap="round" stroke-linejoin="round"/>
</svg>
