<svg width="86" height="116" viewBox="111 12 353 477" fill="none" xmlns="http://www.w3.org/2000/svg">
<mask id="mask0_11848_55077" style="mask-type:luminance" maskUnits="userSpaceOnUse" x="111" y="12" width="353" height="477">
<path d="M463.31 12H111V488.33H463.31V12Z" fill="white"/>
</mask>
<g mask="url(#mask0_11848_55077)">
<path d="M442.27 419.7C442.27 436.9 420.53 455 385.37 463.03C382.75 463.62 380.06 464.17 377.29 464.64C367.57 466.35 356.97 467.28 345.64 467.28C333.07 467.28 321.41 466.11 310.85 464.04C308.07 463.5 305.38 462.91 302.77 462.25C269.45 453.89 249.01 436.37 249.01 419.69C249.01 403.01 269.46 385.49 302.77 377.13C305.39 376.47 308.07 375.88 310.85 375.34C321.41 373.27 333.07 372.1 345.64 372.1C356.97 372.1 367.57 373.04 377.29 374.74C380.06 375.21 382.76 375.76 385.37 376.35C420.53 384.38 442.27 402.48 442.27 419.68V419.7Z" fill="#091A23"/>
<path d="M345.629 487.83C279.919 487.83 228.449 457.9 228.449 419.7C228.449 381.5 279.919 351.57 345.629 351.57C411.339 351.57 462.809 381.5 462.809 419.7C462.809 457.9 411.339 487.83 345.629 487.83ZM345.629 372.12C287.819 372.12 248.989 396.72 248.989 419.7C248.989 442.68 287.819 467.28 345.629 467.28C403.439 467.28 442.269 442.68 442.269 419.7C442.269 396.72 403.439 372.12 345.629 372.12Z" fill="#E8EBEC" stroke="#091A23" stroke-linecap="round" stroke-linejoin="round"/>
<path d="M345.628 372.12C287.818 372.12 248.988 396.72 248.988 419.7C248.988 422.36 249.528 425.04 250.538 427.71C258.258 407.37 294.508 388.13 345.618 388.13C396.728 388.13 432.988 407.37 440.698 427.71C441.708 425.05 442.248 422.36 442.248 419.7C442.248 396.72 403.418 372.12 345.608 372.12H345.628Z" fill="#5C707A" stroke="#091A23" stroke-linecap="round" stroke-linejoin="round"/>
<path opacity="0.6" d="M345.441 319.83C300.401 319.83 263.911 305.37 249.641 283.98C249.591 341.46 249.521 418.8 249.521 419.39C249.521 435.97 269.85 453.4 302.99 461.71C305.59 462.37 308.261 462.96 311.031 463.49C321.531 465.54 333.131 466.71 345.631 466.71C356.901 466.71 367.44 465.78 377.11 464.08C379.86 463.61 382.55 463.07 385.15 462.48C420.12 454.5 441.74 436.49 441.74 419.39C441.74 419.14 442.04 338.08 442.251 282.39C428.76 304.65 391.591 319.83 345.441 319.83Z" fill="#80DBFF"/>
<path d="M345.44 271.25C287.13 271.25 243.16 247.02 243.16 214.89C243.16 182.76 287.13 158.53 345.44 158.53C403.75 158.53 447.72 182.76 447.72 214.89C447.72 247.02 403.75 271.25 345.44 271.25Z" fill="#E9E9E9" stroke="#091A23" stroke-linecap="round" stroke-linejoin="round"/>
<path d="M447.72 214.89C447.72 247.02 403.75 271.25 345.44 271.25C287.13 271.25 243.16 247.02 243.16 214.89V263.47C243.16 295.6 287.13 319.83 345.44 319.83C403.75 319.83 447.72 295.6 447.72 263.47V214.89Z" fill="#8A99A0" stroke="#091A23" stroke-linecap="round" stroke-linejoin="round"/>
<path d="M345.44 258.33C297.63 258.33 261.57 239.65 261.57 214.89C261.57 190.13 297.62 171.45 345.44 171.45C393.25 171.45 429.31 190.13 429.31 214.89C429.31 239.65 393.26 258.33 345.44 258.33Z" fill="#091A23" stroke="#091A23" stroke-linecap="round" stroke-linejoin="round"/>
<path d="M150.63 371.07C150.63 381.88 141.87 385.32 131.06 378.77C120.25 372.21 111.49 358.14 111.49 347.33C111.49 336.52 120.25 333.08 131.06 339.63C141.87 346.19 150.63 360.26 150.63 371.07Z" fill="#D9D9D9" stroke="#091A23" stroke-linecap="round" stroke-linejoin="round"/>
<path d="M254.849 313.7C254.849 302.86 246.069 288.75 235.229 282.17C229.369 278.62 224.129 278.02 220.529 279.91L220.499 279.92C220.279 280.04 220.059 280.16 219.859 280.29L116.529 337.24L116.569 337.29C120.149 335.5 125.309 336.13 131.069 339.62C141.879 346.18 150.639 360.25 150.639 371.06C150.639 375.76 148.979 379.06 146.219 380.76L146.239 380.79L250.299 323.49C250.299 323.49 250.369 323.45 250.409 323.43L250.579 323.33V323.31C253.239 321.58 254.849 318.31 254.849 313.69V313.7Z" fill="#8A99A0" stroke="#091A23" stroke-linecap="round" stroke-linejoin="round"/>
<path opacity="0.6" d="M345.44 258.33C297.63 258.33 261.57 239.65 261.57 214.89C261.57 190.13 297.62 171.45 345.44 171.45C393.25 171.45 429.31 190.13 429.31 214.89C429.31 239.65 393.26 258.33 345.44 258.33Z" fill="#80DBFF" stroke="#091A23" stroke-linecap="round" stroke-linejoin="round"/>
<path d="M345.44 171.96C369.293 171.96 390.177 176.62 405.078 184.339C419.994 192.066 428.811 202.792 428.811 214.9C428.811 216.471 428.652 218.016 428.358 219.539C424.844 209.393 415.123 200.745 401.281 194.542C386.612 187.968 367.235 184.1 345.44 184.1C323.646 184.1 304.266 187.971 289.596 194.546C275.752 200.75 266.03 209.399 262.521 219.541C262.227 218.023 262.07 216.476 262.07 214.9C262.07 202.792 270.886 192.066 285.803 184.339C300.704 176.62 321.588 171.96 345.44 171.96Z" fill="#8A99A0" stroke="#091A23"/>
<path d="M279.329 290.27C279.329 283.56 273.889 274.82 267.179 270.75C263.549 268.55 260.299 268.18 258.079 269.35H258.059C257.919 269.42 257.789 269.5 257.659 269.58L235.529 282.37C244.759 288.11 252.429 299.27 254.369 309.12L276.509 296.34C276.509 296.34 276.559 296.31 276.579 296.3L276.689 296.24C278.349 295.16 279.339 293.14 279.339 290.27H279.329Z" fill="#D9D9D9" stroke="#091A23" stroke-linecap="round" stroke-linejoin="round"/>
<path d="M391.419 152.58C391.419 176.5 374.509 205.65 353.639 217.7C332.779 229.75 315.859 220.12 315.859 196.2C315.859 172.28 332.769 143.13 353.639 131.08C374.499 119.03 391.419 128.66 391.419 152.58Z" fill="#C795E3" stroke="#091A23" stroke-linecap="round" stroke-linejoin="round"/>
<path d="M348.69 190.02V186.79C348.69 184.33 349.17 182.05 350.14 179.96C351.1 177.87 352.75 175.61 355.09 173.18L356.8 171.42C359.3 168.9 361.25 166.54 362.65 164.35C364.05 162.16 364.76 159.83 364.76 157.37C364.76 155.58 364.29 154.33 363.35 153.65C362.42 152.96 361.14 152.75 359.53 153.01C357.92 153.28 356.07 154.01 353.99 155.21C351.91 156.41 350 157.86 348.26 159.56C346.51 161.26 345.12 163.13 344.08 165.16C343.04 167.2 342.52 169.29 342.52 171.44V173.59L334.25 178.36V176.21C334.25 172.72 335.12 169.22 336.87 165.7C338.61 162.18 340.97 158.91 343.93 155.89C346.9 152.87 350.25 150.28 353.99 148.12C357.73 145.96 360.96 144.77 363.82 144.44C366.68 144.12 368.93 144.64 370.57 146C372.21 147.36 373.03 149.55 373.03 152.58C373.03 155.61 372.47 158.35 371.35 160.97C370.23 163.59 368.78 166.03 367.02 168.28C365.25 170.53 363.38 172.67 361.4 174.68L359.69 176.44C358.75 177.39 358.09 178.29 357.7 179.13C357.31 179.97 357.12 181.01 357.12 182.23V185.15L348.69 190.01V190.02ZM353.06 204.65C351.29 205.67 349.8 205.94 348.58 205.47C347.35 205 346.74 203.84 346.74 201.99C346.74 200.14 347.35 198.29 348.58 196.43C349.8 194.57 351.3 193.13 353.06 192.11C354.93 191.03 356.47 190.72 357.66 191.18C358.86 191.64 359.46 192.8 359.46 194.64C359.46 196.48 358.86 198.34 357.66 200.21C356.47 202.08 354.93 203.55 353.06 204.64V204.65Z" fill="white"/>
<path d="M326.169 219.95C319.789 215.88 315.869 207.7 315.869 196.19C315.869 172.27 332.779 143.12 353.649 131.07C363.649 125.3 372.739 124.51 379.489 127.88L369.909 122.36C363.009 117.82 353.159 118.17 342.219 124.49C321.359 136.54 304.439 165.69 304.439 189.61C304.439 202.14 308.859 210.07 316.499 214.36C316.629 214.44 326.169 219.95 326.169 219.95Z" fill="#B76BE2" stroke="#091A23" stroke-linecap="round" stroke-linejoin="round"/>
<path d="M324.149 34.3096C324.149 49.9896 313.059 69.1096 299.379 77.0096C285.699 84.9096 274.609 78.5996 274.609 62.9196C274.609 47.2396 285.699 28.1196 299.379 20.2196C313.059 12.3196 324.149 18.6296 324.149 34.3096Z" fill="#C795E3" stroke="#091A23" stroke-linecap="round" stroke-linejoin="round"/>
<path d="M296.13 58.8595V56.7395C296.13 55.1295 296.45 53.6295 297.08 52.2595C297.71 50.8895 298.79 49.4095 300.33 47.8095L301.45 46.6595C303.09 45.0095 304.37 43.4595 305.29 42.0195C306.21 40.5795 306.67 39.0495 306.67 37.4395C306.67 36.2595 306.36 35.4495 305.75 34.9995C305.14 34.5495 304.3 34.4095 303.24 34.5795C302.18 34.7495 300.97 35.2295 299.61 36.0195C298.25 36.8095 296.99 37.7595 295.85 38.8695C294.7 39.9795 293.79 41.2095 293.11 42.5395C292.43 43.8795 292.09 45.2495 292.09 46.6595V48.0695L286.67 51.1995V49.7895C286.67 47.4995 287.24 45.2095 288.39 42.8995C289.53 40.5895 291.08 38.4495 293.02 36.4695C294.96 34.4895 297.16 32.7895 299.62 31.3695C302.08 29.9495 304.19 29.1695 306.07 28.9595C307.95 28.7495 309.42 29.0895 310.5 29.9895C311.57 30.8795 312.11 32.3195 312.11 34.2995C312.11 36.2495 311.74 38.0795 311.01 39.7995C310.28 41.5195 309.33 43.1195 308.17 44.5895C307.01 46.0695 305.78 47.4695 304.49 48.7795L303.37 49.9295C302.75 50.5595 302.32 51.1395 302.06 51.6895C301.81 52.2395 301.68 52.9195 301.68 53.7295V55.6495L296.15 58.8395L296.13 58.8595ZM299 68.4495C297.84 69.1195 296.86 69.2995 296.06 68.9895C295.26 68.6795 294.86 67.9195 294.86 66.7095C294.86 65.4995 295.26 64.2895 296.06 63.0595C296.86 61.8395 297.84 60.8995 299 60.2295C300.23 59.5195 301.24 59.3195 302.02 59.6195C302.81 59.9195 303.2 60.6795 303.2 61.8895C303.2 63.0995 302.81 64.3195 302.02 65.5495C301.24 66.7695 300.23 67.7395 299 68.4495Z" fill="white"/>
<path d="M281.369 78.4899C277.189 75.8199 274.609 70.4499 274.609 62.9099C274.609 47.2299 285.699 28.1099 299.379 20.2099C305.939 16.4199 311.899 15.9099 316.329 18.1199L310.049 14.4999C305.529 11.5199 299.069 11.7499 291.889 15.8899C278.209 23.7899 267.119 42.9099 267.119 58.5899C267.119 66.7999 270.019 72.0099 275.029 74.8199C275.109 74.8699 281.369 78.4799 281.369 78.4799V78.4899Z" fill="#B76BE2" stroke="#091A23" stroke-linecap="round" stroke-linejoin="round"/>
<path d="M427.889 98.7602C427.889 117.71 414.489 125.34 397.959 115.79C381.429 106.25 368.029 83.1402 368.029 64.1902C368.029 45.2402 381.429 37.6102 397.959 47.1602C414.489 56.7102 427.889 79.8102 427.889 98.7602Z" fill="#C795E3" stroke="#091A23" stroke-linecap="round" stroke-linejoin="round"/>
<path d="M394.03 89.33V86.77C394.03 84.82 394.41 83.46 395.18 82.68C395.94 81.9 397.25 81.62 399.1 81.84L400.46 82.02C402.44 82.31 403.99 82.23 405.1 81.77C406.21 81.32 406.77 80.11 406.77 78.16C406.77 76.74 406.4 75.32 405.65 73.92C404.91 72.52 403.9 71.18 402.62 69.92C401.34 68.66 399.88 67.54 398.23 66.59C396.58 65.64 395.07 65.04 393.69 64.79C392.31 64.54 391.2 64.75 390.38 65.41C389.55 66.07 389.14 67.25 389.14 68.96V70.67L382.59 66.89V65.18C382.59 62.42 383.28 60.44 384.66 59.25C386.04 58.06 387.91 57.62 390.25 57.94C392.6 58.26 395.26 59.28 398.22 60.99C401.14 62.68 403.74 64.71 406.01 67.07C408.28 69.44 410.06 71.91 411.36 74.48C412.66 77.06 413.31 79.55 413.31 81.94C413.31 84.3 412.87 86 411.98 87.05C411.09 88.1 409.95 88.71 408.55 88.88C407.15 89.05 405.66 89.02 404.1 88.81L402.74 88.64C402 88.54 401.47 88.64 401.16 88.95C400.85 89.26 400.7 89.9 400.7 90.88V93.2L394.02 89.35L394.03 89.33ZM397.49 104.91C396.09 104.1 394.9 102.95 393.94 101.46C392.97 99.96 392.49 98.49 392.49 97.03C392.49 95.57 392.97 94.66 393.94 94.3C394.91 93.94 396.09 94.17 397.49 94.98C398.97 95.84 400.19 97 401.14 98.46C402.09 99.92 402.56 101.38 402.56 102.85C402.56 104.31 402.09 105.24 401.14 105.62C400.19 106.01 398.98 105.77 397.49 104.91Z" fill="white"/>
<path d="M435.77 94.1995C435.77 75.2495 422.37 52.1495 405.84 42.5995C397.34 37.6895 389.67 37.3295 384.22 40.7095L376.81 44.9795C382.23 41.9095 389.7 42.3895 397.96 47.1595C414.49 56.6995 427.89 79.8095 427.89 98.7595C427.89 107.86 424.79 114.34 419.75 117.57L427.28 113.24H427.27C432.53 110.09 435.78 103.52 435.78 94.1995H435.77Z" fill="#B76BE2" stroke="#091A23" stroke-linecap="round" stroke-linejoin="round"/>
<path d="M418.549 118.26L418.599 118.23C418.579 118.23 418.569 118.25 418.549 118.26Z" fill="#80DBFF" stroke="#091A23" stroke-linecap="round" stroke-linejoin="round"/>
</g>
</svg>
