<svg width="338" height="306" viewBox="0 0 338 306" fill="none" xmlns="http://www.w3.org/2000/svg">
<g clip-path="url(#clip0_242_48880)">
<path d="M196.329 267.672C262.854 267.672 313.024 241.805 313.024 207.506C313.024 173.206 262.854 147.34 196.329 147.34C129.804 147.34 79.6338 173.206 79.6338 207.506C79.6338 241.805 129.804 267.672 196.329 267.672Z" fill="#E6F8FF"/>
<path d="M117.472 235.519C117.032 235.519 116.585 235.41 116.177 235.171L105.73 229.143C104.492 228.427 104.071 226.848 104.784 225.616C105.503 224.385 107.083 223.966 108.327 224.675L118.774 230.703C120.011 231.419 120.432 232.998 119.72 234.23C119.241 235.055 118.373 235.513 117.479 235.513L117.472 235.519Z" fill="#8A99A0" stroke="#091A23" stroke-linecap="round" stroke-linejoin="round"/>
<path d="M277.797 253.603C303.705 268.47 336.064 249.857 336.064 220.09" stroke="#091A23" stroke-linecap="round" stroke-linejoin="round"/>
<path d="M129.565 168.545L237.724 230.606" stroke="#091A23" stroke-linecap="round" stroke-linejoin="round"/>
<path d="M1.94336 144.535C1.94336 122.646 25.7397 108.965 44.7884 119.893L70.055 134.393" stroke="#091A23" stroke-linecap="round" stroke-linejoin="round"/>
<path d="M104.635 225.583L44.9824 191.174" stroke="#091A23" stroke-linecap="round" stroke-linejoin="round"/>
<path d="M36.8923 295.181C26.8206 289.391 25.726 280.636 34.4505 275.626L181.205 191.283C189.93 186.274 205.164 186.899 215.235 192.689C225.307 198.478 226.402 207.234 217.677 212.243L70.9222 296.586C62.1978 301.596 46.964 300.97 36.8923 295.181Z" fill="#E8EBEC" stroke="#091A23" stroke-linecap="round" stroke-linejoin="round"/>
<path d="M69.6337 292.885C61.6476 297.475 48.7066 297.501 40.7788 292.943C32.851 288.391 32.9029 280.951 40.8825 276.361L182.488 194.983C190.474 190.393 203.415 190.367 211.343 194.925C219.271 199.477 219.219 206.917 211.239 211.508L69.6337 292.885Z" fill="white"/>
<path d="M60.7344 281.474L153.815 227.756" stroke="#091A23" stroke-linecap="round" stroke-linejoin="round"/>
<path d="M28.5822 283.569L28.5693 283.557V283.717C28.5693 283.666 28.5758 283.621 28.5822 283.569Z" fill="#5C707A" stroke="#091A23" stroke-linecap="round" stroke-linejoin="round"/>
<path d="M223.545 209.014V204.191C223.377 207.215 221.44 210.084 217.671 212.25L70.9159 296.594C62.1915 301.603 46.9577 300.978 36.886 295.188C31.5684 292.132 28.7574 288.251 28.5696 284.531V289.431C28.3688 293.389 31.1863 297.619 36.886 300.894C46.9577 306.684 62.1915 307.309 70.9159 302.299L217.671 217.956C221.803 215.577 223.727 212.36 223.545 209.02V209.014Z" fill="#5C707A" stroke="#091A23" stroke-linecap="round" stroke-linejoin="round"/>
<path opacity="0.5" d="M241.222 105.561H151.432L180.215 203.449H180.261C181.485 208.214 187.541 211.147 196.323 211.147C205.106 211.147 211.11 207.879 212.393 203.449L241.222 105.561Z" fill="#C795E3"/>
<path d="M196.329 135.592C227.542 135.592 251.086 122.685 251.086 105.561C251.086 88.4432 227.548 75.5293 196.329 75.5293C165.117 75.5293 141.573 88.4367 141.573 105.561C141.573 122.678 165.111 135.592 196.329 135.592Z" fill="#5C707A" stroke="#091A23" stroke-linecap="round" stroke-linejoin="round"/>
<path d="M196.329 128.711C221.926 128.711 241.221 118.757 241.221 105.566C241.221 92.3681 221.92 82.4199 196.329 82.4199C170.732 82.4199 151.438 92.3745 151.438 105.566C151.438 118.763 170.739 128.711 196.329 128.711Z" fill="white" stroke="#091A23" stroke-linecap="round" stroke-linejoin="round"/>
<path d="M193.104 89.635C218.701 89.635 237.996 99.5896 237.996 112.781C237.996 113.425 237.938 114.057 237.847 114.689C240.03 111.917 241.222 108.841 241.222 105.56C241.222 92.3622 221.92 82.4141 196.33 82.4141C170.739 82.4141 153.349 91.4209 151.587 103.658C158.187 95.2635 173.868 89.635 193.104 89.635Z" fill="#F1FFA5"/>
<path d="M141.573 105.561C141.573 122.678 165.11 135.592 196.323 135.592C227.535 135.592 251.079 122.684 251.079 105.561V131.446C251.079 148.564 227.542 161.478 196.323 161.478C165.11 161.478 141.573 148.57 141.573 131.446V105.561Z" fill="#8A99A0" stroke="#091A23" stroke-linecap="round" stroke-linejoin="round"/>
<path d="M196.329 128.713C221.926 128.713 241.221 118.759 241.221 105.568C241.221 92.37 221.92 82.4219 196.329 82.4219C170.732 82.4219 151.438 92.3765 151.438 105.568C151.438 118.765 170.739 128.713 196.329 128.713Z" stroke="#091A23" stroke-linecap="round" stroke-linejoin="round"/>
<path d="M300.608 188.783C300.608 194.54 305.298 196.377 311.082 192.883C316.866 189.389 321.555 181.89 321.555 176.133C321.555 170.376 316.866 168.538 311.082 172.033C305.298 175.527 300.608 183.025 300.608 188.783Z" fill="#E8EBEC" stroke="#091A23" stroke-linecap="round" stroke-linejoin="round"/>
<path d="M244.822 158.216C244.822 152.439 249.525 144.922 255.328 141.415C258.463 139.519 261.274 139.203 263.197 140.209L263.21 140.215C263.327 140.28 263.444 140.344 263.554 140.415L318.873 170.763L318.854 170.795C316.937 169.841 314.171 170.176 311.088 172.039C305.304 175.534 300.615 183.032 300.615 188.789C300.615 191.291 301.502 193.051 302.979 193.96L302.966 193.973L247.258 163.438C247.258 163.438 247.219 163.419 247.199 163.406L247.109 163.355H247.115C245.684 162.426 244.822 160.686 244.822 158.223V158.216Z" fill="#5C707A" stroke="#091A23" stroke-linecap="round" stroke-linejoin="round"/>
<path d="M196.329 128.713C221.926 128.713 241.221 118.759 241.221 105.568C241.221 92.37 221.92 82.4219 196.329 82.4219C170.732 82.4219 151.438 92.3765 151.438 105.568C151.438 118.765 170.739 128.713 196.329 128.713Z" stroke="#091A23" stroke-linecap="round" stroke-linejoin="round"/>
<path d="M196.329 128.713C221.926 128.713 241.221 118.759 241.221 105.568C241.221 92.37 221.92 82.4219 196.329 82.4219C170.732 82.4219 151.438 92.3765 151.438 105.568C151.438 118.765 170.739 128.713 196.329 128.713Z" stroke="#091A23" stroke-linecap="round" stroke-linejoin="round"/>
<path d="M231.72 145.726C231.72 142.148 234.634 137.493 238.222 135.32C240.166 134.147 241.901 133.947 243.093 134.572H243.1C243.171 134.611 243.242 134.65 243.313 134.695L255.153 141.503C250.218 144.559 246.105 150.51 245.069 155.758L233.216 148.95C233.216 148.95 233.19 148.937 233.177 148.93L233.119 148.898C232.231 148.324 231.7 147.241 231.7 145.72L231.72 145.726Z" fill="#2D4754" stroke="#091A23" stroke-linecap="round" stroke-linejoin="round"/>
<path d="M198.772 2.69531L179.412 73.5636L196.822 63.4866L195.721 103.582L213.222 37.7749L196.563 47.4716L198.772 2.69531Z" fill="#DCFF1E" stroke="#091A23" stroke-linecap="round" stroke-linejoin="round"/>
<path d="M209.122 35.3945L213.222 37.7736L196.563 47.4703L196.881 42.4801L209.122 35.3945Z" fill="#F1FFA5" stroke="#091A23" stroke-linecap="round" stroke-linejoin="round"/>
<path d="M198.772 2.69486L194.665 0.322266L175.306 71.1906L179.412 73.5632L198.772 2.69486Z" fill="#F1FFA5" stroke="#091A23" stroke-linecap="round" stroke-linejoin="round"/>
<path d="M191.621 101.203L195.721 103.582L196.822 63.4863L192.463 65.9621L191.621 101.203Z" fill="#F1FFA5" stroke="#091A23" stroke-linecap="round" stroke-linejoin="round"/>
<path d="M208.234 196.712C214.692 200.419 214.653 206.46 208.15 210.193C201.647 213.926 191.142 213.952 184.691 210.245C178.24 206.538 178.272 200.497 184.775 196.764C191.278 193.024 201.783 193.005 208.234 196.712Z" fill="#C795E3"/>
<path d="M199.626 203.204C200.468 205.467 197.949 207.704 194.011 208.201C190.073 208.697 186.193 207.272 185.358 205.009C184.522 202.746 187.035 200.509 190.973 200.013C194.911 199.516 198.791 200.941 199.626 203.204Z" stroke="white" stroke-width="2" stroke-linecap="round" stroke-linejoin="round"/>
<path d="M208.973 202.043L199.957 203.165" stroke="white" stroke-width="2" stroke-linecap="round" stroke-linejoin="round"/>
<path d="M200.048 105.961L207.95 110.745" stroke="#091A23" stroke-linecap="round" stroke-linejoin="round"/>
<path d="M209.154 98.4941L199.938 103.626" stroke="#091A23" stroke-linecap="round" stroke-linejoin="round"/>
<path d="M57.7683 200.607C58.9094 200.607 59.8344 199.687 59.8344 198.551C59.8344 197.415 58.9094 196.494 57.7683 196.494C56.6272 196.494 55.7021 197.415 55.7021 198.551C55.7021 199.687 56.6272 200.607 57.7683 200.607Z" fill="#DCFF1E" stroke="#091A23" stroke-linecap="round" stroke-linejoin="round"/>
<path d="M309.359 259.238C310.5 259.238 311.425 258.318 311.425 257.182C311.425 256.046 310.5 255.125 309.359 255.125C308.218 255.125 307.293 256.046 307.293 257.182C307.293 258.318 308.218 259.238 309.359 259.238Z" fill="#DCFF1E" stroke="#091A23" stroke-linecap="round" stroke-linejoin="round"/>
<path d="M30.7917 118.197C31.9328 118.197 32.8579 117.277 32.8579 116.141C32.8579 115.005 31.9328 114.084 30.7917 114.084C29.6506 114.084 28.7256 115.005 28.7256 116.141C28.7256 117.277 29.6506 118.197 30.7917 118.197Z" fill="#DCFF1E" stroke="#091A23" stroke-linecap="round" stroke-linejoin="round"/>
<path d="M336.063 220.09C336.063 219.658 336.057 219.233 336.044 218.801" stroke="#091A23" stroke-linecap="round" stroke-linejoin="round"/>
<path d="M335.863 216.189C334.632 204.113 327.753 193.217 317.164 186.906L313.154 184.514" stroke="#091A23" stroke-linecap="round" stroke-linejoin="round"/>
<path d="M312.021 183.844L310.913 183.18" stroke="#091A23" stroke-linecap="round" stroke-linejoin="round"/>
<path d="M277.797 255.215C277.525 255.215 277.246 255.144 276.987 255.002L236.914 232.011C236.137 231.567 235.872 230.58 236.318 229.813C236.765 229.039 237.756 228.775 238.534 229.22L278.607 252.211C279.384 252.656 279.649 253.642 279.202 254.409C278.904 254.925 278.36 255.215 277.797 255.215Z" fill="#DCFF1E" stroke="#091A23" stroke-linecap="round" stroke-linejoin="round"/>
<path d="M129.558 170.156C129.286 170.156 129.008 170.085 128.749 169.943L69.2386 135.799C68.4613 135.354 68.1958 134.367 68.6427 133.6C69.0896 132.826 70.0806 132.562 70.8578 133.007L130.368 167.152C131.145 167.596 131.411 168.583 130.964 169.35C130.666 169.866 130.122 170.156 129.558 170.156Z" fill="#DCFF1E" stroke="#091A23" stroke-linecap="round" stroke-linejoin="round"/>
<path d="M44.9828 192.787C44.7043 192.787 44.4258 192.716 44.1732 192.568L20.0854 178.674C7.89578 171.64 0.324219 158.558 0.324219 144.536C0.324219 143.646 1.04964 142.924 1.94346 142.924C2.83728 142.924 3.5627 143.646 3.5627 144.536C3.5627 157.411 10.519 169.422 21.7111 175.882L45.7989 189.776C46.5697 190.221 46.8353 191.207 46.3883 191.981C46.0904 192.497 45.5463 192.787 44.9828 192.787Z" fill="#DCFF1E" stroke="#091A23" stroke-linecap="round" stroke-linejoin="round"/>
<path d="M313.899 181.219C313.899 181.754 313.757 182.341 313.511 182.928C313.478 183.018 313.433 183.102 313.394 183.192C312.986 184.069 312.351 184.92 311.6 185.558C311.522 185.623 311.445 185.687 311.367 185.752C311.199 185.881 311.024 186.003 310.842 186.113C309.152 187.131 307.785 186.596 307.785 184.914C307.785 184.559 307.85 184.172 307.967 183.785C307.992 183.695 308.018 183.605 308.051 183.521C308.355 182.638 308.919 181.742 309.618 181.013C309.683 180.942 309.748 180.878 309.819 180.813C310.143 180.504 310.486 180.239 310.842 180.02C312.533 179.001 313.899 179.537 313.899 181.219Z" fill="#163341" stroke="#091A23" stroke-linecap="round" stroke-linejoin="round"/>
<path d="M337.676 220.091C337.676 220.987 336.957 221.703 336.057 221.703C335.157 221.703 334.438 220.987 334.438 220.091C334.438 207.132 327.501 194.947 316.328 188.287L311.73 185.631L311.6 185.56L308.051 183.522C308.355 182.639 308.919 181.743 309.618 181.014C309.683 180.943 309.748 180.879 309.819 180.814L313.511 182.929L313.757 183.071L317.993 185.521C330.137 192.761 337.676 206.004 337.676 220.091Z" fill="#DCFF1E" stroke="#091A23" stroke-linecap="round" stroke-linejoin="round"/>
</g>
<defs>
<clipPath id="clip0_242_48880">
<rect width="338" height="306" fill="white"/>
</clipPath>
</defs>
</svg>
