<svg width="209" height="257" viewBox="0 0 209 257" fill="none" xmlns="http://www.w3.org/2000/svg">
<path d="M66.4331 129.385C66.6022 129.16 208.458 48.4868 208.312 48.5545" stroke="#8A99A0" stroke-width="0.7" stroke-linecap="round" stroke-linejoin="round" stroke-dasharray="4 4"/>
<path d="M94.8809 183.374C109.585 175.177 208.074 118.634 208.35 118.73" stroke="#8A99A0" stroke-width="0.7" stroke-linecap="round" stroke-linejoin="round" stroke-dasharray="4 4"/>
<path d="M81.5249 174.669C81.8012 175.149 174.94 120.974 174.979 121.425" stroke="#8A99A0" stroke-width="0.7" stroke-linecap="round" stroke-linejoin="round" stroke-dasharray="4 4"/>
<path d="M96.0414 235.627C95.8328 236.331 174.944 191.126 174.916 190.952" stroke="#8A99A0" stroke-width="0.7" stroke-linecap="round" stroke-linejoin="round" stroke-dasharray="4 4"/>
<path d="M59.2881 182.963V116.339L135.479 160.535V230.147L59.2881 182.963Z" fill="#B9C2C6"/>
<path d="M0.350098 166.641L65.9587 128.326L128.348 164.516L62.7394 202.831L0.350098 166.641Z" fill="#2D4754" stroke="#091A23" stroke-width="0.7" stroke-linecap="round" stroke-linejoin="round"/>
<path d="M66.1899 128.32V179.118L128.579 217.754V164.51L66.1899 128.32Z" fill="#2D4754" stroke="#091A23" stroke-width="0.7" stroke-linecap="round" stroke-linejoin="round"/>
<path d="M81.8524 146.006C81.8524 143.204 80.3583 140.611 77.934 139.207L69.7703 134.476C68.0282 133.467 65.8519 134.725 65.8519 136.737L61.3359 134.121V181.311L118.837 214.451V167.441L81.858 146.012L81.8524 146.006Z" fill="#80DBFF" stroke="#091A23" stroke-width="0.7" stroke-linecap="round" stroke-linejoin="round"/>
<path d="M66.792 134.742L63.5051 132.836L61.3232 134.116L65.8392 136.732C65.8392 135.897 66.2226 135.21 66.7864 134.742H66.792Z" fill="#80DBFF" stroke="#091A23" stroke-width="0.7" stroke-linecap="round" stroke-linejoin="round"/>
<path d="M81.3052 143.141C81.6547 144.043 81.8577 145.002 81.8577 146L118.837 167.43V214.439L121.019 213.159V166.15L81.3052 143.141Z" fill="#80DBFF" stroke="#091A23" stroke-width="0.7" stroke-linecap="round" stroke-linejoin="round"/>
<path d="M71.5975 152.084C71.5975 149.282 70.1034 146.688 67.6791 145.284L59.5154 140.554C57.7733 139.545 55.597 140.802 55.597 142.815L51.0811 140.199V187.388L108.582 220.528V173.519L71.6031 152.089L71.5975 152.084Z" fill="#DCFF1E" stroke="#091A23" stroke-width="0.7" stroke-linecap="round" stroke-linejoin="round"/>
<path d="M56.5416 140.819L53.2546 138.914L51.0728 140.193L55.5887 142.809C55.5887 141.975 55.9721 141.287 56.5359 140.819H56.5416Z" fill="#DCFF1E" stroke="#091A23" stroke-width="0.7" stroke-linecap="round" stroke-linejoin="round"/>
<path d="M71.0483 149.225C71.3979 150.127 71.6009 151.086 71.6009 152.084L108.58 173.514V220.523L110.762 219.243V172.234L71.0483 149.225Z" fill="#DCFF1E" stroke="#091A23" stroke-width="0.7" stroke-linecap="round" stroke-linejoin="round"/>
<path d="M65.7156 155.602C65.7156 152.8 64.2216 150.206 61.7973 148.802L53.6336 144.072C51.8914 143.063 49.7152 144.32 49.7152 146.333L45.1992 143.717V190.906L102.7 224.046V177.037L65.7213 155.607L65.7156 155.602Z" fill="#DCFF1E" stroke="#091A23" stroke-width="0.7" stroke-linecap="round" stroke-linejoin="round"/>
<path d="M50.6617 144.337L47.3747 142.432L45.1929 143.711L49.7088 146.327C49.7088 145.493 50.0922 144.805 50.656 144.337H50.6617Z" fill="#DCFF1E" stroke="#091A23" stroke-width="0.7" stroke-linecap="round" stroke-linejoin="round"/>
<path d="M65.168 152.743C65.5175 153.645 65.7205 154.604 65.7205 155.602L102.7 177.032V224.041L104.882 222.761V175.752L65.168 152.743Z" fill="#DCFF1E" stroke="#091A23" stroke-width="0.7" stroke-linecap="round" stroke-linejoin="round"/>
<path d="M59.7347 159.041C59.7347 156.239 58.2406 153.645 55.8163 152.242L47.6526 147.511C45.9105 146.502 43.7342 147.759 43.7342 149.772L39.2183 147.156V194.346L96.7195 227.485V180.476L59.7403 159.047L59.7347 159.041Z" fill="#C795E3" stroke="#091A23" stroke-width="0.7" stroke-linecap="round" stroke-linejoin="round"/>
<path d="M44.6807 147.776L41.3938 145.871L39.2119 147.151L43.7279 149.767C43.7279 148.932 44.1113 148.244 44.6751 147.776H44.6807Z" fill="#C795E3" stroke="#091A23" stroke-width="0.7" stroke-linecap="round" stroke-linejoin="round"/>
<path d="M59.1875 156.183C59.5371 157.085 59.74 158.043 59.74 159.041L96.7192 180.471V227.48L98.9011 226.2V179.191L59.1875 156.183Z" fill="#C795E3" stroke="#091A23" stroke-width="0.7" stroke-linecap="round" stroke-linejoin="round"/>
<path d="M49.8006 164.842C49.8006 162.04 48.3066 159.447 45.8822 158.043L37.7185 153.313C35.9764 152.304 33.8002 153.561 33.8002 155.574L29.2842 152.958V200.147L86.7854 233.287V186.278L49.8062 164.848L49.8006 164.842Z" fill="#80DBFF" stroke="#091A23" stroke-width="0.7" stroke-linecap="round" stroke-linejoin="round"/>
<path d="M34.7466 153.578L31.4597 151.672L29.2778 152.952L33.7938 155.568C33.7938 154.734 34.1772 154.046 34.741 153.578H34.7466Z" fill="#80DBFF" stroke="#091A23" stroke-width="0.7" stroke-linecap="round" stroke-linejoin="round"/>
<path d="M49.2529 161.984C49.6025 162.886 49.8054 163.845 49.8054 164.843L86.7846 186.272V233.281L88.9665 232.002V184.993L49.2529 161.984Z" fill="#80DBFF" stroke="#091A23" stroke-width="0.7" stroke-linecap="round" stroke-linejoin="round"/>
<path d="M43.5413 168.439C43.5413 165.637 42.0473 163.044 39.623 161.64L31.4592 156.91C29.7171 155.901 27.5409 157.158 27.5409 159.171L23.0249 156.555V203.744L80.5262 236.884V189.875L43.547 168.445L43.5413 168.439Z" fill="#DCFF1E" stroke="#091A23" stroke-width="0.7" stroke-linecap="round" stroke-linejoin="round"/>
<path d="M28.4893 157.175L25.2024 155.269L23.0205 156.549L27.5365 159.165C27.5365 158.331 27.9199 157.643 28.4837 157.175H28.4893Z" fill="#DCFF1E" stroke="#091A23" stroke-width="0.7" stroke-linecap="round" stroke-linejoin="round"/>
<path d="M42.9941 165.581C43.3437 166.483 43.5467 167.442 43.5467 168.439L80.5258 189.869V236.878L82.7077 235.599V188.589L42.9941 165.581Z" fill="#DCFF1E" stroke="#091A23" stroke-width="0.7" stroke-linecap="round" stroke-linejoin="round"/>
<path d="M35.8914 172.871C35.8914 170.069 34.3974 167.475 31.9731 166.071L23.8093 161.341C22.0672 160.332 19.891 161.589 19.891 163.602L15.375 160.986V208.176L72.8762 241.315V194.306L35.8971 172.876L35.8914 172.871Z" fill="#C795E3" stroke="#091A23" stroke-width="0.7" stroke-linecap="round" stroke-linejoin="round"/>
<path d="M20.8374 161.606L17.5505 159.701L15.3687 160.981L19.8846 163.596C19.8846 162.762 20.268 162.074 20.8318 161.606H20.8374Z" fill="#C795E3" stroke="#091A23" stroke-width="0.7" stroke-linecap="round" stroke-linejoin="round"/>
<path d="M35.3442 170.012C35.6938 170.915 35.8968 171.873 35.8968 172.871L72.8759 194.301V241.31L75.0578 240.03V193.021L35.3442 170.012Z" fill="#C795E3" stroke="#091A23" stroke-width="0.7" stroke-linecap="round" stroke-linejoin="round"/>
<path d="M30.1746 176.101C30.1746 173.299 28.6806 170.706 26.2563 169.302L18.0925 164.572C16.3504 163.563 14.1742 164.82 14.1742 166.833L9.6582 164.217V211.406L67.1594 244.546V197.537L30.1803 176.107L30.1746 176.101Z" fill="#80DBFF" stroke="#091A23" stroke-width="0.7" stroke-linecap="round" stroke-linejoin="round"/>
<path d="M15.1167 164.837L11.8298 162.931L9.64795 164.211L14.1639 166.827C14.1639 165.993 14.5473 165.305 15.1111 164.837H15.1167Z" fill="#80DBFF" stroke="#091A23" stroke-width="0.7" stroke-linecap="round" stroke-linejoin="round"/>
<path d="M29.6294 173.243C29.9789 174.145 30.1819 175.103 30.1819 176.101L67.1611 197.531V244.54L69.343 243.26V196.251L29.6294 173.243Z" fill="#80DBFF" stroke="#091A23" stroke-width="0.7" stroke-linecap="round" stroke-linejoin="round"/>
<path d="M62.7393 256.075L128.551 217.895V164.651L62.7393 202.831V256.075Z" fill="white" stroke="#091A23" stroke-width="0.7" stroke-linecap="round" stroke-linejoin="round"/>
<path d="M0.350098 166.641L62.7394 202.831V256.075L0.350098 219.942V166.641Z" fill="white" stroke="#091A23" stroke-width="0.7" stroke-linecap="round" stroke-linejoin="round"/>
<path d="M4.87744 174.584L17.3936 181.846V192.53L4.87744 185.279V174.584Z" fill="#E8EBEC"/>
<path d="M76.4056 13.5202C76.4056 10.7182 74.9115 8.12472 72.4872 6.72088L64.3235 1.99065C62.5814 0.981465 60.4051 2.23872 60.4051 4.25146L55.8892 1.63547V48.825L113.39 81.9647V34.95L76.4112 13.5202H76.4056Z" fill="#C795E3" stroke="#091A23" stroke-width="0.7" stroke-linecap="round" stroke-linejoin="round"/>
<path d="M61.3516 2.25572L58.0647 0.350098L55.8828 1.62991L60.3988 4.24591C60.3988 3.41149 60.7822 2.72367 61.346 2.25572H61.3516Z" fill="#C795E3" stroke="#091A23" stroke-width="0.7" stroke-linecap="round" stroke-linejoin="round"/>
<path d="M75.8584 10.6619C76.208 11.5639 76.4109 12.5224 76.4109 13.5203L113.39 34.9501V81.9592L115.572 80.6794V33.6703L75.8584 10.6619Z" fill="#C795E3" stroke="#091A23" stroke-width="0.7" stroke-linecap="round" stroke-linejoin="round"/>
<path d="M98.3828 50.5954C98.3828 58.4321 92.0288 61.1327 84.1921 56.628C76.3554 52.1233 70.0015 42.1102 70.0015 34.2735C70.0015 26.4368 76.3554 23.7362 84.1921 28.2409C92.0288 32.7456 98.3828 42.7586 98.3828 50.5954Z" fill="#E3CAF1"/>
<path d="M95.6475 127.796V85.9905" stroke="#091A23" stroke-width="0.7" stroke-linecap="round" stroke-linejoin="round"/>
<path d="M67.9053 104.336V62.4351" stroke="#091A23" stroke-width="0.7" stroke-linecap="round" stroke-linejoin="round"/>
<path d="M88.4419 74.9287V89.9031" stroke="#091A23" stroke-width="0.7" stroke-linecap="round" stroke-linejoin="round"/>
</svg>
